<svg width="2030" height="260" viewBox="0 0 2030 260" version="1.1" xmlns="http://www.w3.org/2000/svg" xmlns:xlink="http://www.w3.org/1999/xlink">
<g id="Canvas" fill="none">
<g id="Group 2">
<g id="Rectangle">
<rect width="212.132" height="212.132" rx="50" transform="matrix(0.707107 -0.707107 0.707107 0.707107 -20 130)" fill="#2F80ED"/>
<rect x="2.5" y="2.5" width="207.132" height="207.132" rx="47.5" stroke-width="5" transform="matrix(0.707107 -0.707107 0.707107 0.707107 -20 130)" stroke="#2F80ED"/>
</g>
<g id="Group">
<g id="Line">
<line y1="-7.5" x2="70.2426" y2="-7.5" stroke-width="15" transform="matrix(0.645942 0.763386 -0.763386 0.645942 63.2893 120.097)" stroke="white"/>
</g>
<g id="Line_2">
<line y1="-7.5" x2="119.183" y2="-7.5" stroke-width="15" transform="matrix(-0.759084 0.650992 -0.650992 -0.759084 199.132 96.132)" stroke="white"/>
</g>
</g>
</g>
<g id="Xcode Test Reporter">
<path d="M 12.6758 252.322C 9.52474 252.322 7.26888 252.072 5.9082 251.57C 4.54753 251.069 3.86719 250.245 3.86719 249.1C 3.86719 248.24 4.36849 247.094 5.37109 245.662L 48.125 182.283L 9.88281 124.598C 8.88021 123.094 8.37891 121.948 8.37891 121.16C 8.37891 118.94 11.3151 117.83 17.1875 117.83L 19.9805 117.83C 23.9909 117.83 26.6764 118.797 28.0371 120.73L 58.6523 166.814L 90.127 120.623C 90.7715 119.692 91.8457 119.012 93.3496 118.582C 94.8535 118.081 96.5365 117.83 98.3984 117.83L 99.4727 117.83C 102.624 117.83 104.88 118.117 106.24 118.689C 107.601 119.191 108.281 120.014 108.281 121.16C 108.281 121.59 108.102 122.127 107.744 122.771C 107.458 123.344 107.135 123.953 106.777 124.598L 68.5352 181.316L 111.611 245.662C 112.614 247.094 113.115 248.24 113.115 249.1C 113.115 250.174 112.435 250.997 111.074 251.57C 109.714 252.072 107.458 252.322 104.307 252.322L 101.191 252.322C 99.043 252.322 97.3242 252.143 96.0352 251.785C 94.7461 251.355 93.7435 250.568 93.0273 249.422L 57.9004 197L 22.3438 249.637C 21.2695 251.427 18.5124 252.322 14.0723 252.322L 12.6758 252.322ZM 173.809 253.074C 157.982 253.074 146.165 249.028 138.359 240.936C 130.625 232.771 126.758 219.666 126.758 201.619C 126.758 183.357 131.09 170.359 139.756 162.625C 148.421 154.891 159.199 151.023 172.09 151.023C 176.888 151.023 181.507 151.453 185.947 152.312C 190.387 153.1 193.968 154.174 196.689 155.535C 199.411 156.896 200.771 158.328 200.771 159.832C 200.771 160.835 200.413 162.16 199.697 163.807C 199.053 165.454 198.229 166.922 197.227 168.211C 196.296 169.428 195.436 170.037 194.648 170.037C 194.434 170.037 194.111 169.965 193.682 169.822C 193.252 169.607 192.858 169.428 192.5 169.285C 186.055 166.277 179.108 164.773 171.66 164.773C 162.852 164.773 156.048 167.674 151.25 173.475C 146.452 179.204 144.053 188.442 144.053 201.189C 144.053 210.213 145.02 217.518 146.953 223.104C 148.887 228.618 152.002 232.7 156.299 235.35C 160.667 237.999 166.468 239.324 173.701 239.324C 181.65 239.324 188.812 237.677 195.186 234.383C 195.83 234.24 196.296 234.096 196.582 233.953C 196.94 233.738 197.191 233.631 197.334 233.631C 198.122 233.631 199.017 234.24 200.02 235.457C 201.022 236.674 201.882 238.071 202.598 239.646C 203.385 241.222 203.779 242.475 203.779 243.406C 203.779 244.91 202.419 246.414 199.697 247.918C 196.976 249.422 193.288 250.675 188.633 251.678C 184.049 252.609 179.108 253.074 173.809 253.074ZM 264.258 253.074C 249.863 253.074 238.87 248.777 231.279 240.184C 223.76 231.518 220 218.95 220 202.479C 220 186.007 223.831 173.331 231.494 164.451C 239.157 155.499 250.078 151.023 264.258 151.023C 278.294 151.023 289.036 155.464 296.484 164.344C 303.932 173.152 307.656 185.864 307.656 202.479C 307.656 219.021 303.968 231.59 296.592 240.184C 289.287 248.777 278.509 253.074 264.258 253.074ZM 263.721 239.324C 273.031 239.324 279.906 236.316 284.346 230.301C 288.786 224.214 291.006 214.832 291.006 202.156C 291.006 189.409 288.786 179.992 284.346 173.904C 279.906 167.817 273.031 164.773 263.721 164.773C 254.482 164.773 247.679 167.817 243.311 173.904C 238.942 179.92 236.758 189.337 236.758 202.156C 236.758 214.904 238.906 224.285 243.203 230.301C 247.572 236.316 254.411 239.324 263.721 239.324ZM 365.127 253.074C 357.679 253.074 351.162 250.926 345.576 246.629C 339.99 242.26 335.658 236.209 332.578 228.475C 329.57 220.74 328.066 211.967 328.066 202.156C 328.066 191.342 329.678 182.104 332.9 174.441C 336.195 166.707 340.778 160.87 346.65 156.932C 352.523 152.993 359.29 151.023 366.953 151.023C 372.467 151.023 377.337 151.847 381.562 153.494C 385.859 155.141 390.085 157.54 394.238 160.691L 394.238 112.566C 394.238 109.773 396.745 108.377 401.758 108.377L 402.617 108.377C 407.702 108.377 410.244 109.773 410.244 112.566L 410.244 223.748C 410.244 232.055 410.638 238.071 411.426 241.795C 412.214 245.447 412.607 247.452 412.607 247.811C 412.607 249.386 411.39 250.532 408.955 251.248C 406.592 251.893 404.372 252.215 402.295 252.215C 400.863 252.215 399.717 251.535 398.857 250.174C 397.998 248.813 397.389 247.452 397.031 246.092C 396.745 244.66 396.243 242.225 395.527 238.787C 386.432 248.312 376.299 253.074 365.127 253.074ZM 368.457 239.217C 372.682 239.217 377.051 238.071 381.562 235.779C 386.146 233.488 390.371 230.229 394.238 226.004L 394.238 173.689C 387.363 167.96 379.521 165.096 370.713 165.096C 362.191 165.311 355.745 168.426 351.377 174.441C 347.08 180.457 344.932 189.194 344.932 200.652C 344.932 212.97 346.937 222.495 350.947 229.227C 355.029 235.887 360.866 239.217 368.457 239.217ZM 483.613 253.074C 467.786 253.074 456.006 248.956 448.271 240.721C 440.609 232.413 436.777 219.738 436.777 202.693C 436.777 185.792 440.537 172.973 448.057 164.236C 455.576 155.428 466.641 151.023 481.25 151.023C 494.284 151.023 504.095 155.249 510.684 163.699C 517.344 172.15 520.674 184.539 520.674 200.867C 520.674 201.583 520.28 202.586 519.492 203.875C 518.776 205.092 517.881 206.202 516.807 207.205C 515.804 208.136 514.945 208.602 514.229 208.602L 453.965 208.602C 454.753 219.272 457.474 227.078 462.129 232.02C 466.855 236.889 473.945 239.324 483.398 239.324C 488.698 239.324 493.245 238.68 497.041 237.391C 500.908 236.102 504.632 234.526 508.213 232.664C 508.571 232.521 509.108 232.27 509.824 231.912C 510.54 231.554 511.042 231.375 511.328 231.375C 512.116 231.375 513.011 232.02 514.014 233.309C 515.088 234.526 515.983 235.923 516.699 237.498C 517.487 239.002 517.881 240.112 517.881 240.828C 517.881 242.404 516.305 244.158 513.154 246.092C 510.003 248.025 505.778 249.673 500.479 251.033C 495.251 252.394 489.629 253.074 483.613 253.074ZM 503.594 194.852C 503.594 174.799 495.967 164.773 480.713 164.773C 464.313 164.773 455.397 174.799 453.965 194.852L 503.594 194.852ZM 627.344 252.322C 624.694 252.322 622.76 252 621.543 251.355C 620.326 250.639 619.717 249.565 619.717 248.133L 619.717 132.869L 582.979 132.869C 581.618 132.869 580.651 132.404 580.078 131.473C 579.505 130.542 579.219 129.109 579.219 127.176L 579.219 124.061C 579.219 122.055 579.505 120.623 580.078 119.764C 580.651 118.833 581.618 118.367 582.979 118.367L 672.568 118.367C 673.929 118.367 674.896 118.833 675.469 119.764C 676.042 120.623 676.328 122.055 676.328 124.061L 676.328 127.176C 676.328 129.109 676.042 130.542 675.469 131.473C 674.896 132.404 673.929 132.869 672.568 132.869L 636.582 132.869L 636.582 248.133C 636.582 250.926 634.004 252.322 628.848 252.322L 627.344 252.322ZM 732.617 253.074C 716.79 253.074 705.01 248.956 697.275 240.721C 689.613 232.413 685.781 219.738 685.781 202.693C 685.781 185.792 689.541 172.973 697.061 164.236C 704.58 155.428 715.645 151.023 730.254 151.023C 743.288 151.023 753.099 155.249 759.688 163.699C 766.348 172.15 769.678 184.539 769.678 200.867C 769.678 201.583 769.284 202.586 768.496 203.875C 767.78 205.092 766.885 206.202 765.811 207.205C 764.808 208.136 763.949 208.602 763.232 208.602L 702.969 208.602C 703.757 219.272 706.478 227.078 711.133 232.02C 715.859 236.889 722.949 239.324 732.402 239.324C 737.702 239.324 742.249 238.68 746.045 237.391C 749.912 236.102 753.636 234.526 757.217 232.664C 757.575 232.521 758.112 232.27 758.828 231.912C 759.544 231.554 760.046 231.375 760.332 231.375C 761.12 231.375 762.015 232.02 763.018 233.309C 764.092 234.526 764.987 235.923 765.703 237.498C 766.491 239.002 766.885 240.112 766.885 240.828C 766.885 242.404 765.309 244.158 762.158 246.092C 759.007 248.025 754.782 249.673 749.482 251.033C 744.255 252.394 738.633 253.074 732.617 253.074ZM 752.598 194.852C 752.598 174.799 744.971 164.773 729.717 164.773C 713.317 164.773 704.401 174.799 702.969 194.852L 752.598 194.852ZM 815.439 253.826C 810.068 253.826 805.055 253.146 800.4 251.785C 795.745 250.424 792.021 248.777 789.229 246.844C 786.507 244.839 785.146 243.084 785.146 241.58C 785.146 240.864 785.505 239.718 786.221 238.143C 787.008 236.567 787.904 235.171 788.906 233.953C 789.98 232.664 790.947 232.02 791.807 232.02C 792.021 232.02 792.666 232.378 793.74 233.094C 796.605 234.956 799.613 236.531 802.764 237.82C 805.986 239.109 809.818 239.754 814.258 239.754C 826.719 239.754 832.949 234.598 832.949 224.285C 832.949 221.349 832.34 218.878 831.123 216.873C 829.977 214.868 828.008 213.113 825.215 211.609C 822.493 210.034 818.734 208.53 813.936 207.098C 807.061 205.092 801.689 202.801 797.822 200.223C 794.027 197.645 791.341 194.637 789.766 191.199C 788.19 187.69 787.402 183.465 787.402 178.523C 787.402 173.224 788.727 168.462 791.377 164.236C 794.098 160.011 797.858 156.717 802.656 154.354C 807.526 151.99 813.005 150.809 819.092 150.809C 823.317 150.809 827.363 151.202 831.23 151.99C 835.169 152.778 838.32 153.816 840.684 155.105C 843.118 156.323 844.336 157.612 844.336 158.973C 844.336 159.975 843.978 161.336 843.262 163.055C 842.617 164.702 841.794 166.17 840.791 167.459C 839.788 168.676 838.893 169.285 838.105 169.285C 837.962 169.285 837.067 168.855 835.42 167.996C 833.773 167.065 831.66 166.242 829.082 165.525C 826.576 164.738 823.783 164.344 820.703 164.344C 815.833 164.344 811.787 165.454 808.564 167.674C 805.413 169.822 803.838 172.723 803.838 176.375C 803.838 180.672 804.984 184.109 807.275 186.688C 809.567 189.266 813.363 191.378 818.662 193.025C 826.826 195.532 833.057 198.038 837.354 200.545C 841.65 203.051 844.694 206.131 846.484 209.783C 848.346 213.364 849.277 218.09 849.277 223.963C 849.277 229.549 847.773 234.633 844.766 239.217C 841.758 243.729 837.676 247.309 832.52 249.959C 827.363 252.537 821.67 253.826 815.439 253.826ZM 902.344 253.074C 895.97 253.074 890.277 251.141 885.264 247.273C 880.251 243.406 877.744 236.567 877.744 226.756L 877.744 165.848L 868.184 165.848C 866.823 165.848 865.82 165.418 865.176 164.559C 864.603 163.628 864.316 162.16 864.316 160.154L 864.316 157.791C 864.316 155.786 864.603 154.354 865.176 153.494C 865.82 152.563 866.823 152.098 868.184 152.098L 877.744 152.098L 880 132.117C 880.143 129.324 882.184 127.928 886.123 127.928L 887.949 127.928C 889.954 127.928 891.423 128.286 892.354 129.002C 893.285 129.646 893.75 130.685 893.75 132.117L 893.75 152.098L 909.756 152.098C 911.117 152.098 912.083 152.563 912.656 153.494C 913.301 154.354 913.623 155.786 913.623 157.791L 913.623 160.154C 913.623 162.16 913.301 163.628 912.656 164.559C 912.083 165.418 911.117 165.848 909.756 165.848L 893.75 165.848L 893.75 225.252C 893.75 230.48 894.645 234.132 896.436 236.209C 898.298 238.286 900.804 239.324 903.955 239.324C 906.39 239.324 908.252 239.181 909.541 238.895C 910.902 238.608 911.797 238.465 912.227 238.465C 913.372 238.465 914.303 239.611 915.02 241.902C 915.807 244.194 916.201 246.02 916.201 247.381C 916.201 251.176 911.582 253.074 902.344 253.074ZM 994.941 252.322C 989.785 252.322 987.207 250.926 987.207 248.133L 987.207 124.061C 987.207 122.055 987.673 120.623 988.604 119.764C 989.535 118.833 991.003 118.367 993.008 118.367L 1025.13 118.367C 1040.38 118.367 1051.84 121.053 1059.5 126.424C 1067.24 131.795 1071.1 140.353 1071.1 152.098C 1071.1 160.047 1069.17 166.743 1065.3 172.186C 1061.51 177.557 1056.14 181.603 1049.19 184.324L 1049.19 185.076C 1052.91 186.365 1055.96 188.872 1058.32 192.596C 1060.76 196.248 1063.44 201.691 1066.38 208.924L 1081.31 246.629C 1081.67 247.918 1081.85 248.813 1081.85 249.314C 1081.85 251.32 1079.16 252.322 1073.79 252.322L 1071.86 252.322C 1069.92 252.322 1068.24 252.072 1066.81 251.57C 1065.45 250.997 1064.59 250.245 1064.23 249.314L 1049.73 211.824C 1047.86 206.954 1045.68 203.159 1043.17 200.438C 1040.67 197.716 1037.7 195.818 1034.26 194.744C 1030.82 193.67 1026.49 193.133 1021.26 193.133L 1004.07 193.133L 1004.07 248.133C 1004.07 250.926 1001.53 252.322 996.445 252.322L 994.941 252.322ZM 1029.21 178.631C 1033.72 178.631 1037.84 177.557 1041.56 175.408C 1045.36 173.26 1048.33 170.395 1050.48 166.814C 1052.7 163.162 1053.81 159.295 1053.81 155.213C 1053.81 147.693 1051.52 142.107 1046.93 138.455C 1042.35 134.731 1036.01 132.869 1027.92 132.869L 1004.07 132.869L 1004.07 178.631L 1029.21 178.631ZM 1142.75 253.074C 1126.93 253.074 1115.15 248.956 1107.41 240.721C 1099.75 232.413 1095.92 219.738 1095.92 202.693C 1095.92 185.792 1099.68 172.973 1107.2 164.236C 1114.72 155.428 1125.78 151.023 1140.39 151.023C 1153.42 151.023 1163.24 155.249 1169.82 163.699C 1176.48 172.15 1179.81 184.539 1179.81 200.867C 1179.81 201.583 1179.42 202.586 1178.63 203.875C 1177.92 205.092 1177.02 206.202 1175.95 207.205C 1174.94 208.136 1174.09 208.602 1173.37 208.602L 1113.11 208.602C 1113.89 219.272 1116.61 227.078 1121.27 232.02C 1126 236.889 1133.09 239.324 1142.54 239.324C 1147.84 239.324 1152.39 238.68 1156.18 237.391C 1160.05 236.102 1163.77 234.526 1167.35 232.664C 1167.71 232.521 1168.25 232.27 1168.96 231.912C 1169.68 231.554 1170.18 231.375 1170.47 231.375C 1171.26 231.375 1172.15 232.02 1173.15 233.309C 1174.23 234.526 1175.12 235.923 1175.84 237.498C 1176.63 239.002 1177.02 240.112 1177.02 240.828C 1177.02 242.404 1175.45 244.158 1172.29 246.092C 1169.14 248.025 1164.92 249.673 1159.62 251.033C 1154.39 252.394 1148.77 253.074 1142.75 253.074ZM 1162.73 194.852C 1162.73 174.799 1155.11 164.773 1139.85 164.773C 1123.45 164.773 1114.54 174.799 1113.11 194.852L 1162.73 194.852ZM 1212.69 291.746C 1207.53 291.746 1204.95 290.35 1204.95 287.557L 1204.95 181.102C 1204.95 172.794 1204.56 166.814 1203.77 163.162C 1202.98 159.438 1202.59 157.397 1202.59 157.039C 1202.59 155.464 1203.77 154.354 1206.13 153.709C 1208.57 152.993 1210.86 152.635 1213.01 152.635C 1214.8 152.635 1216.12 153.602 1216.98 155.535C 1217.84 157.469 1218.45 159.438 1218.81 161.443C 1219.24 163.449 1219.52 164.738 1219.67 165.311C 1228.76 155.786 1238.9 151.023 1250.07 151.023C 1257.73 151.023 1264.36 153.208 1269.94 157.576C 1275.53 161.945 1279.79 167.996 1282.72 175.73C 1285.66 183.465 1287.13 192.273 1287.13 202.156C 1287.13 212.898 1285.48 222.101 1282.19 229.764C 1278.96 237.426 1274.42 243.227 1268.54 247.166C 1262.67 251.105 1255.9 253.074 1248.24 253.074C 1242.73 253.074 1237.82 252.251 1233.53 250.604C 1229.3 248.956 1225.11 246.557 1220.96 243.406L 1220.96 287.557C 1220.96 290.35 1218.45 291.746 1213.44 291.746L 1212.69 291.746ZM 1244.59 239.002C 1253.11 238.787 1259.52 235.672 1263.82 229.656C 1268.12 223.641 1270.26 214.904 1270.26 203.445C 1270.26 191.128 1268.22 181.639 1264.14 174.979C 1260.13 168.247 1254.33 164.881 1246.74 164.881C 1242.51 164.881 1238.11 166.027 1233.53 168.318C 1229.01 170.61 1224.82 173.868 1220.96 178.094L 1220.96 230.408C 1227.98 236.137 1235.85 239.002 1244.59 239.002ZM 1352.87 253.074C 1338.48 253.074 1327.48 248.777 1319.89 240.184C 1312.37 231.518 1308.61 218.95 1308.61 202.479C 1308.61 186.007 1312.44 173.331 1320.11 164.451C 1327.77 155.499 1338.69 151.023 1352.87 151.023C 1366.91 151.023 1377.65 155.464 1385.1 164.344C 1392.55 173.152 1396.27 185.864 1396.27 202.479C 1396.27 219.021 1392.58 231.59 1385.21 240.184C 1377.9 248.777 1367.12 253.074 1352.87 253.074ZM 1352.33 239.324C 1361.64 239.324 1368.52 236.316 1372.96 230.301C 1377.4 224.214 1379.62 214.832 1379.62 202.156C 1379.62 189.409 1377.4 179.992 1372.96 173.904C 1368.52 167.817 1361.64 164.773 1352.33 164.773C 1343.1 164.773 1336.29 167.817 1331.92 173.904C 1327.56 179.92 1325.37 189.337 1325.37 202.156C 1325.37 214.904 1327.52 224.285 1331.82 230.301C 1336.18 236.316 1343.02 239.324 1352.33 239.324ZM 1431.72 252.322C 1429 252.322 1427.03 252 1425.81 251.355C 1424.59 250.639 1423.98 249.565 1423.98 248.133L 1423.98 181.102C 1423.98 172.794 1423.59 166.814 1422.8 163.162C 1422.01 159.438 1421.62 157.397 1421.62 157.039C 1421.62 155.464 1422.8 154.354 1425.17 153.709C 1427.6 152.993 1429.89 152.635 1432.04 152.635C 1433.76 152.635 1435.05 153.566 1435.91 155.428C 1436.77 157.218 1437.52 159.76 1438.16 163.055L 1438.7 165.311C 1445.5 155.786 1452.88 151.023 1460.83 151.023C 1464.48 151.023 1467.24 151.704 1469.1 153.064C 1470.96 154.354 1471.89 156.108 1471.89 158.328C 1471.89 160.477 1471.5 162.768 1470.71 165.203C 1470 167.566 1469.14 168.748 1468.13 168.748C 1467.63 168.748 1466.74 168.533 1465.45 168.104C 1464.3 167.602 1463.16 167.244 1462.01 167.029C 1460.87 166.743 1459.4 166.6 1457.61 166.6C 1454.67 166.6 1451.88 167.459 1449.23 169.178C 1446.65 170.896 1444.47 172.794 1442.68 174.871C 1440.89 176.948 1439.99 178.094 1439.99 178.309L 1439.99 248.133C 1439.99 249.565 1439.38 250.639 1438.16 251.355C 1436.95 252 1435.05 252.322 1432.47 252.322L 1431.72 252.322ZM 1521.74 253.074C 1515.36 253.074 1509.67 251.141 1504.66 247.273C 1499.65 243.406 1497.14 236.567 1497.14 226.756L 1497.14 165.848L 1487.58 165.848C 1486.22 165.848 1485.21 165.418 1484.57 164.559C 1484 163.628 1483.71 162.16 1483.71 160.154L 1483.71 157.791C 1483.71 155.786 1484 154.354 1484.57 153.494C 1485.21 152.563 1486.22 152.098 1487.58 152.098L 1497.14 152.098L 1499.39 132.117C 1499.54 129.324 1501.58 127.928 1505.52 127.928L 1507.34 127.928C 1509.35 127.928 1510.82 128.286 1511.75 129.002C 1512.68 129.646 1513.14 130.685 1513.14 132.117L 1513.14 152.098L 1529.15 152.098C 1530.51 152.098 1531.48 152.563 1532.05 153.494C 1532.7 154.354 1533.02 155.786 1533.02 157.791L 1533.02 160.154C 1533.02 162.16 1532.7 163.628 1532.05 164.559C 1531.48 165.418 1530.51 165.848 1529.15 165.848L 1513.14 165.848L 1513.14 225.252C 1513.14 230.48 1514.04 234.132 1515.83 236.209C 1517.69 238.286 1520.2 239.324 1523.35 239.324C 1525.78 239.324 1527.65 239.181 1528.94 238.895C 1530.3 238.608 1531.19 238.465 1531.62 238.465C 1532.77 238.465 1533.7 239.611 1534.41 241.902C 1535.2 244.194 1535.6 246.02 1535.6 247.381C 1535.6 251.176 1530.98 253.074 1521.74 253.074ZM 1599.51 253.074C 1583.68 253.074 1571.9 248.956 1564.17 240.721C 1556.51 232.413 1552.68 219.738 1552.68 202.693C 1552.68 185.792 1556.44 172.973 1563.96 164.236C 1571.47 155.428 1582.54 151.023 1597.15 151.023C 1610.18 151.023 1619.99 155.249 1626.58 163.699C 1633.24 172.15 1636.57 184.539 1636.57 200.867C 1636.57 201.583 1636.18 202.586 1635.39 203.875C 1634.67 205.092 1633.78 206.202 1632.71 207.205C 1631.7 208.136 1630.84 208.602 1630.13 208.602L 1569.86 208.602C 1570.65 219.272 1573.37 227.078 1578.03 232.02C 1582.75 236.889 1589.84 239.324 1599.3 239.324C 1604.6 239.324 1609.14 238.68 1612.94 237.391C 1616.81 236.102 1620.53 234.526 1624.11 232.664C 1624.47 232.521 1625.01 232.27 1625.72 231.912C 1626.44 231.554 1626.94 231.375 1627.23 231.375C 1628.01 231.375 1628.91 232.02 1629.91 233.309C 1630.99 234.526 1631.88 235.923 1632.6 237.498C 1633.39 239.002 1633.78 240.112 1633.78 240.828C 1633.78 242.404 1632.2 244.158 1629.05 246.092C 1625.9 248.025 1621.68 249.673 1616.38 251.033C 1611.15 252.394 1605.53 253.074 1599.51 253.074ZM 1619.49 194.852C 1619.49 174.799 1611.87 164.773 1596.61 164.773C 1580.21 164.773 1571.3 174.799 1569.86 194.852L 1619.49 194.852ZM 1670.2 252.322C 1667.47 252.322 1665.5 252 1664.29 251.355C 1663.07 250.639 1662.46 249.565 1662.46 248.133L 1662.46 181.102C 1662.46 172.794 1662.07 166.814 1661.28 163.162C 1660.49 159.438 1660.1 157.397 1660.1 157.039C 1660.1 155.464 1661.28 154.354 1663.64 153.709C 1666.08 152.993 1668.37 152.635 1670.52 152.635C 1672.24 152.635 1673.53 153.566 1674.38 155.428C 1675.24 157.218 1676 159.76 1676.64 163.055L 1677.18 165.311C 1683.98 155.786 1691.36 151.023 1699.31 151.023C 1702.96 151.023 1705.72 151.704 1707.58 153.064C 1709.44 154.354 1710.37 156.108 1710.37 158.328C 1710.37 160.477 1709.98 162.768 1709.19 165.203C 1708.47 167.566 1707.61 168.748 1706.61 168.748C 1706.11 168.748 1705.21 168.533 1703.93 168.104C 1702.78 167.602 1701.63 167.244 1700.49 167.029C 1699.34 166.743 1697.87 166.6 1696.08 166.6C 1693.15 166.6 1690.35 167.459 1687.71 169.178C 1685.13 170.896 1682.94 172.794 1681.15 174.871C 1679.36 176.948 1678.47 178.094 1678.47 178.309L 1678.47 248.133C 1678.47 249.565 1677.86 250.639 1676.64 251.355C 1675.42 252 1673.53 252.322 1670.95 252.322L 1670.2 252.322Z" transform="translate(319 -56)" fill="black"/>
</g>
</g>
</svg>

